<svg xmlns="http://www.w3.org/2000/svg" viewBox="0 0 24 24"><path fill="#303c42" d="M21 1H3c-1.103 0-2 .897-2 2v18c0 1.103.897 2 2 2h18c1.103 0 2-.897 2-2V3c0-1.103-.897-2-2-2z"/><path fill="#039be5" d="M22 21c0 .551-.449 1-1 1H3c-.551 0-1-.449-1-1V3c0-.551.449-1 1-1h18c.551 0 1 .449 1 1v18z"/><path fill="#fff" d="M2.75 21.75v-18c0-.551.449-1 1-1h18c.074 0 .139.027.208.042A.988.988 0 0 0 21 2H3c-.551 0-1 .449-1 1v18c0 .478.344.859.792.958-.015-.069-.042-.134-.042-.208z" opacity=".2"/><circle cx="6" cy="6" r="2" fill="#303c42"/><circle cx="6" cy="6" r="1" fill="#fff"/><path fill="#303c42" d="M7.5 9h-3a.5.5 0 0 0-.5.5v10a.5.5 0 0 0 .5.5h3a.5.5 0 0 0 .5-.5v-10a.5.5 0 0 0-.5-.5z"/><path fill="#fff" d="M5 10h2v9H5z"/><path fill="#303c42" d="M15.5 9c-1.084 0-1.85.306-2.5.814V9.5a.5.5 0 0 0-.5-.5h-3a.5.5 0 0 0-.5.5v10a.5.5 0 0 0 .5.5h3a.5.5 0 0 0 .5-.5V14c0-1.252.561-2 1.5-2s1.5.748 1.5 2v5.5a.5.5 0 0 0 .5.5h3a.5.5 0 0 0 .5-.5V14c0-3.038-1.767-5-4.5-5z"/><path fill="#fff" d="M19 19h-2v-5c0-2.072-1.256-3-2.5-3s-2.5.928-2.5 3v5h-2v-9h2v1.001a.5.5 0 0 0 .879.327C13.622 10.467 14.26 10 15.5 10c2.159 0 3.5 1.533 3.5 4v5z"/><linearGradient id="a" x1="7.296" x2="7.311" y1="4.488" y2="4.503" gradientUnits="userSpaceOnUse"><stop offset="0" stop-opacity=".1"/><stop offset="1" stop-opacity="0"/></linearGradient><path fill="url(#a)" d="m7.311 4.502-.015-.015-.001.001.016.014z"/><linearGradient id="b" x1="4.2" x2="19.887" y1="7.839" y2="23.526" gradientUnits="userSpaceOnUse"><stop offset="0" stop-opacity=".1"/><stop offset="1" stop-opacity="0"/></linearGradient><path fill="url(#b)" d="m18.605 10.187-.022.003C19.478 11.063 20 12.369 20 14v5.5a.5.5 0 0 1-.5.5h-3a.5.5 0 0 1-.5-.5V14c0-1.252-.561-2-1.5-2s-1.5.748-1.5 2v5.5a.5.5 0 0 1-.5.5h-3a.5.5 0 0 1-.5-.5v-10a.5.5 0 0 1 .5-.5h2.309L7.498 4.689C7.807 5.041 8 5.496 8 6c0 1.103-.897 2-2 2a1.988 1.988 0 0 1-1.392-.569l-.001.001L6.175 9H7.5a.5.5 0 0 1 .5.5v10a.5.5 0 0 1-.5.5h-3a.495.495 0 0 1-.321-.124L6.303 22H21c.551 0 1-.449 1-1v-7.418l-3.395-3.395z"/><linearGradient id="c" x1="4.117" x2="4.125" y1="19.811" y2="19.82" gradientUnits="userSpaceOnUse"><stop offset="0" stop-opacity=".1"/><stop offset="1" stop-opacity="0"/></linearGradient><path fill="url(#c)" d="M4.117 19.811v.002l.007.008z"/><linearGradient id="d" x1="-.652" x2="24.652" y1="6.1" y2="17.9" gradientUnits="userSpaceOnUse"><stop offset="0" stop-color="#fff" stop-opacity=".2"/><stop offset="1" stop-color="#fff" stop-opacity="0"/></linearGradient><path fill="url(#d)" d="M21 1H3c-1.103 0-2 .897-2 2v18c0 1.103.897 2 2 2h18c1.103 0 2-.897 2-2V3c0-1.103-.897-2-2-2z"/></svg>