<svg xmlns="http://www.w3.org/2000/svg" viewBox="0 0 24 24"><path fill="#303c42" d="M23.866 4.43a.502.502 0 0 0-.599-.103 4.82 4.82 0 0 1-.747.27c.391-.513.708-1.096.844-1.618a.501.501 0 0 0-.774-.534c-.293.209-1.653.811-2.53 1.005C18.949 2.449 17.841 2 16.501 2c-1.005 0-1.936.287-3.018.929-1.887 1.12-2.213 3.541-2.074 5.025-5.122-.487-7.995-3.467-9.016-4.764a.528.528 0 0 0-.428-.189.498.498 0 0 0-.397.247C.347 5.341.847 7.494 1.786 8.945a6.347 6.347 0 0 1-.467-.352.5.5 0 0 0-.819.385c0 2.198 1.287 3.768 2.543 4.66a11.495 11.495 0 0 1-.394-.115.501.501 0 0 0-.605.681c.803 1.805 2.401 3.151 4.19 3.619-1.555.949-3.695 1.415-5.675 1.182a.5.5 0 0 0-.306.93C2.686 21.324 5.215 22 7.982 22H8c3.781-.003 7.332-1.648 9.998-4.632 2.573-2.879 3.923-6.566 3.646-9.923.662-.494 1.662-1.417 2.28-2.41a.499.499 0 0 0-.058-.605z"/><path fill="#26c6da" d="M20.841 6.789a.501.501 0 0 0-.219.472c.348 3.109-.944 6.727-3.369 9.441C14.779 19.47 11.493 20.996 8 21h-.017c-1.866 0-3.617-.329-5.302-1 1.979-.213 3.893-.979 5.156-2.131A.5.5 0 0 0 7.511 17c-1.546-.035-3.052-.903-4.006-2.243.677.099 1.329.043 1.82-.378a.498.498 0 0 0-.27-.876c-.551-.062-2.875-1.151-3.435-3.481.597.341 1.31.604 1.98.468a.502.502 0 0 0 .394-.407.502.502 0 0 0-.239-.513c-.915-.542-2.551-2.768-1.64-5.159 1.47 1.63 4.653 4.309 9.858 4.588a.5.5 0 0 0 .513-.617c-.244-1.014-.204-3.579 1.507-4.593.931-.553 1.681-.789 2.508-.789 1.155 0 2.07.404 3.061 1.35a.496.496 0 0 0 .417.133c.492-.072 1.171-.295 1.785-.54-.363.486-.798.892-1.115 1.021a.5.5 0 0 0 .188.964h.002c.321-.001.772-.074 1.229-.178a8.87 8.87 0 0 1-1.227 1.039z"/><path fill="#fff" d="M12.487 8.457c.126.01.238.034.366.041a.5.5 0 0 0 .513-.617c-.236-.98-.191-3.393 1.353-4.472a7.292 7.292 0 0 0-.725.379c-1.71 1.015-1.751 3.579-1.507 4.593.005.026-.003.051 0 .076zM6.961 18.534a7.476 7.476 0 0 0 1.755-1.165.5.5 0 0 0-.326-.87c-1.372-.031-2.71-.72-3.66-1.81-.376.117-.792.13-1.224.067.954 1.34 2.459 2.208 4.006 2.243a.5.5 0 0 1 .326.87c-.265.241-.562.46-.877.665zm1.917 1.965h-.017c-1.63 0-3.169-.267-4.656-.777-.496.128-1.007.223-1.524.278 1.685.671 3.436 1 5.302 1H8c2.28-.002 4.466-.664 6.401-1.885-1.71.894-3.581 1.382-5.523 1.384zM3.755 9.57c.159.094.237.27.23.451.165.009.331.002.494-.031a.501.501 0 0 0 .156-.92c-.767-.454-2.032-2.088-1.892-4.01a13.563 13.563 0 0 1-.628-.649c-.911 2.391.725 4.617 1.64 5.159zm1.301 3.933a.5.5 0 0 1 .422.35.48.48 0 0 1-.069.396c.291-.058.562-.17.795-.37a.498.498 0 0 0-.27-.876c-.467-.052-2.204-.854-3.063-2.518a3.772 3.772 0 0 1-1.251-.463c.56 2.329 2.885 3.419 3.436 3.481z" opacity=".2"/><linearGradient id="a" x1=".306" x2="19.821" y1="5.899" y2="14.998" gradientUnits="userSpaceOnUse"><stop offset="0" stop-color="#fff" stop-opacity=".2"/><stop offset="1" stop-color="#fff" stop-opacity="0"/></linearGradient><path fill="url(#a)" d="M23.866 4.43a.502.502 0 0 0-.599-.103 4.82 4.82 0 0 1-.747.27c.391-.513.708-1.096.844-1.618a.501.501 0 0 0-.774-.534c-.293.209-1.653.811-2.53 1.005C18.949 2.449 17.841 2 16.501 2c-1.005 0-1.936.287-3.018.929-1.887 1.12-2.213 3.541-2.074 5.025-5.122-.487-7.995-3.467-9.016-4.764a.528.528 0 0 0-.428-.189.498.498 0 0 0-.397.247C.347 5.341.847 7.494 1.786 8.945a6.347 6.347 0 0 1-.467-.352.5.5 0 0 0-.819.385c0 2.198 1.287 3.768 2.543 4.66a11.495 11.495 0 0 1-.394-.115.501.501 0 0 0-.605.681c.803 1.805 2.401 3.151 4.19 3.619-1.555.949-3.695 1.415-5.675 1.182a.5.5 0 0 0-.306.93C2.686 21.324 5.215 22 7.982 22H8c3.781-.003 7.332-1.648 9.998-4.632 2.573-2.879 3.923-6.566 3.646-9.923.662-.494 1.662-1.417 2.28-2.41a.499.499 0 0 0-.058-.605z"/></svg>